<?xml version="1.0" encoding="UTF-8"?>
<svg xmlns="http://www.w3.org/2000/svg" xmlns:xlink="http://www.w3.org/1999/xlink" width="48pt" height="48pt" viewBox="0 0 48 48" version="1.1">
<defs>
<linearGradient id="linear0" gradientUnits="userSpaceOnUse" x1="146.98117" y1="93.16667" x2="161.88067" y2="93.16667" gradientTransform="matrix(0.27907,0,0,0.27907,0,0)">
<stop offset="0" style="stop-color:rgb(69.019608%,20.784314%,20.784314%);stop-opacity:1;"/>
<stop offset="1" style="stop-color:rgb(81.176471%,27.45098%,27.45098%);stop-opacity:1;"/>
</linearGradient>
</defs>
<g id="surface10470282">
<path style=" stroke:none;fill-rule:nonzero;fill:url(#linear0);" d="M 43 11 L 40 11 L 40 41 L 43 41 C 44.105469 41 45 40.105469 45 39 L 45 13 C 45 11.894531 44.105469 11 43 11 Z M 43 11 "/>
<path style=" stroke:none;fill-rule:nonzero;fill:rgb(100%,32.156863%,32.156863%);fill-opacity:1;" d="M 41 39 L 41 9 C 41 7.894531 40.105469 7 39 7 L 5 7 C 3.894531 7 3 7.894531 3 9 L 3 39 C 3 40.105469 3.894531 41 5 41 L 43 41 C 41.894531 41 41 40.105469 41 39 Z M 41 39 "/>
<path style=" stroke:none;fill-rule:nonzero;fill:rgb(100%,100%,100%);fill-opacity:1;" d="M 37 17 L 7 17 C 6.449219 17 6 16.550781 6 16 L 6 14 C 6 13.449219 6.449219 13 7 13 L 37 13 C 37.550781 13 38 13.449219 38 14 L 38 16 C 38 16.550781 37.550781 17 37 17 Z M 37 17 "/>
<path style=" stroke:none;fill-rule:nonzero;fill:rgb(100%,100%,100%);fill-opacity:1;" d="M 19 36 L 7 36 C 6.449219 36 6 35.550781 6 35 L 6 22 C 6 21.449219 6.449219 21 7 21 L 19 21 C 19.550781 21 20 21.449219 20 22 L 20 35 C 20 35.550781 19.550781 36 19 36 Z M 19 36 "/>
<path style=" stroke:none;fill-rule:nonzero;fill:rgb(100%,100%,100%);fill-opacity:1;" d="M 38 24 L 24 24 L 24 22 C 24 21.449219 24.449219 21 25 21 L 37 21 C 37.550781 21 38 21.449219 38 22 Z M 38 24 "/>
<path style=" stroke:none;fill-rule:nonzero;fill:rgb(90.196078%,93.333333%,100%);fill-opacity:1;" d="M 24 24 L 38 24 L 38 27 L 24 27 Z M 24 24 "/>
<path style=" stroke:none;fill-rule:nonzero;fill:rgb(100%,80%,80%);fill-opacity:1;" d="M 24 27 L 38 27 L 38 30 L 24 30 Z M 24 27 "/>
<path style=" stroke:none;fill-rule:nonzero;fill:rgb(100%,70.196078%,70.196078%);fill-opacity:1;" d="M 24 30 L 38 30 L 38 33 L 24 33 Z M 24 30 "/>
<path style=" stroke:none;fill-rule:nonzero;fill:rgb(100%,60.392157%,60.392157%);fill-opacity:1;" d="M 37 36 L 25 36 C 24.449219 36 24 35.550781 24 35 L 24 33 L 38 33 L 38 35 C 38 35.550781 37.550781 36 37 36 Z M 37 36 "/>
</g>
</svg>
