<?xml version="1.0" encoding="UTF-8"?>
<svg xmlns="http://www.w3.org/2000/svg" xmlns:xlink="http://www.w3.org/1999/xlink" width="50pt" height="50pt" viewBox="0 0 50 50" version="1.1">
<g id="surface9667157">
<path style=" stroke:none;fill-rule:nonzero;fill:rgb(93.333333%,24.313725%,32.941176%);fill-opacity:1;" d="M 7.5 14.5 C 7.5 15.050781 7.050781 15.5 6.5 15.5 C 5.949219 15.5 5.5 15.050781 5.5 14.5 C 5.5 13.949219 5.949219 13.5 6.5 13.5 C 7.050781 13.5 7.5 13.949219 7.5 14.5 Z M 7.5 14.5 "/>
<path style=" stroke:none;fill-rule:nonzero;fill:rgb(94.509804%,73.72549%,9.803922%);fill-opacity:1;" d="M 39 6.5 C 39 6.777344 38.777344 7 38.5 7 C 38.222656 7 38 6.777344 38 6.5 C 38 6.222656 38.222656 6 38.5 6 C 38.777344 6 39 6.222656 39 6.5 Z M 39 6.5 "/>
<path style=" stroke:none;fill-rule:nonzero;fill:rgb(98.823529%,87.843137%,63.529412%);fill-opacity:1;" d="M 43.5 25 C 43.5 35.21875 35.21875 43.5 25 43.5 C 14.78125 43.5 6.5 35.21875 6.5 25 C 6.5 14.78125 14.78125 6.5 25 6.5 C 35.21875 6.5 43.5 14.78125 43.5 25 Z M 43.5 25 "/>
<path style=" stroke:none;fill-rule:nonzero;fill:rgb(94.509804%,73.72549%,9.803922%);fill-opacity:1;" d="M 43.5 7.5 C 43.5 8.605469 42.605469 9.5 41.5 9.5 C 40.394531 9.5 39.5 8.605469 39.5 7.5 C 39.5 6.394531 40.394531 5.5 41.5 5.5 C 42.605469 5.5 43.5 6.394531 43.5 7.5 Z M 43.5 7.5 "/>
<path style=" stroke:none;fill-rule:nonzero;fill:rgb(93.333333%,24.313725%,32.941176%);fill-opacity:1;" d="M 44.5 12 C 44.5 12.550781 44.050781 13 43.5 13 C 42.949219 13 42.5 12.550781 42.5 12 C 42.5 11.449219 42.949219 11 43.5 11 C 44.050781 11 44.5 11.449219 44.5 12 Z M 44.5 12 "/>
<path style=" stroke:none;fill-rule:nonzero;fill:rgb(98.431373%,80.392157%,34.901961%);fill-opacity:1;" d="M 41.5 38 C 41.5 38.550781 41.050781 39 40.5 39 C 39.949219 39 39.5 38.550781 39.5 38 C 39.5 37.449219 39.949219 37 40.5 37 C 41.050781 37 41.5 37.449219 41.5 38 Z M 41.5 38 "/>
<path style=" stroke:none;fill-rule:nonzero;fill:rgb(98.431373%,80.392157%,34.901961%);fill-opacity:1;" d="M 9.5 31.5 C 9.5 32.605469 8.605469 33.5 7.5 33.5 C 6.394531 33.5 5.5 32.605469 5.5 31.5 C 5.5 30.394531 6.394531 29.5 7.5 29.5 C 8.605469 29.5 9.5 30.394531 9.5 31.5 Z M 9.5 31.5 "/>
<path style=" stroke:none;fill-rule:nonzero;fill:rgb(93.333333%,24.313725%,32.941176%);fill-opacity:1;" d="M 13.5 43.5 C 13.5 44.050781 13.050781 44.5 12.5 44.5 C 11.949219 44.5 11.5 44.050781 11.5 43.5 C 11.5 42.949219 11.949219 42.5 12.5 42.5 C 13.050781 42.5 13.5 42.949219 13.5 43.5 Z M 13.5 43.5 "/>
<path style=" stroke:none;fill-rule:nonzero;fill:rgb(100%,100%,100%);fill-opacity:1;" d="M 10.5 26.75 C 10.5 27.441406 9.941406 28 9.25 28 C 8.558594 28 8 27.441406 8 26.75 C 8 26.058594 8.558594 25.5 9.25 25.5 C 9.941406 25.5 10.5 26.058594 10.5 26.75 Z M 10.5 26.75 "/>
<path style=" stroke:none;fill-rule:nonzero;fill:rgb(94.509804%,73.72549%,9.803922%);fill-opacity:1;" d="M 11 33.5 C 11 33.777344 10.777344 34 10.5 34 C 10.222656 34 10 33.777344 10 33.5 C 10 33.222656 10.222656 33 10.5 33 C 10.777344 33 11 33.222656 11 33.5 Z M 11 33.5 "/>
<path style=" stroke:none;fill-rule:nonzero;fill:rgb(100%,100%,100%);fill-opacity:1;" d="M 40.5 17 C 40.5 17.277344 40.277344 17.5 40 17.5 C 39.722656 17.5 39.5 17.277344 39.5 17 C 39.5 16.722656 39.722656 16.5 40 16.5 C 40.277344 16.5 40.5 16.722656 40.5 17 Z M 40.5 17 "/>
<path style=" stroke:none;fill-rule:nonzero;fill:rgb(98.039216%,74.901961%,50.980392%);fill-opacity:1;" d="M 34.558594 35.261719 C 34.359375 34.191406 33.921875 33.5625 32.890625 33.25 C 32.84375 33.238281 32.785156 33.214844 32.71875 33.1875 C 32.640625 33.15625 32.539062 33.113281 32.425781 33.070312 C 31.800781 32.804688 28.085938 31.4375 28.085938 31.4375 C 27.78125 31.359375 27.582031 31.140625 27.46875 30.894531 C 27.277344 30.488281 27.351562 29.4375 27.351562 29.4375 C 27.351562 29.4375 25.800781 29.96875 24.832031 30.148438 C 23.878906 30.242188 21.839844 29.015625 21.839844 29.015625 C 21.839844 29.015625 21.789062 30.53125 21.726562 30.871094 C 21.675781 31.136719 21.390625 31.359375 21.085938 31.4375 L 17.523438 32.726562 C 17.128906 32.832031 16.75 32.976562 16.417969 33.183594 C 15.523438 33.738281 15.066406 34.566406 14.835938 35.261719 C 14.835938 35.261719 14.601562 36.921875 14.613281 36.980469 C 14.589844 37.214844 14.566406 37.46875 14.542969 37.738281 C 18.425781 40.367188 21.542969 41.101562 26.890625 40.867188 C 29.324219 40.761719 32.941406 39.5625 34.839844 38.605469 C 34.738281 36.492188 34.558594 35.261719 34.558594 35.261719 Z M 34.558594 35.261719 "/>
<path style=" stroke:none;fill-rule:nonzero;fill:rgb(53.333333%,80.392157%,84.313725%);fill-opacity:1;" d="M 32.890625 33.269531 C 32.84375 33.257812 32.785156 33.234375 32.71875 33.210938 C 32.640625 33.175781 32.539062 33.136719 32.425781 33.089844 C 32.039062 32.925781 30.472656 32.339844 29.332031 31.917969 L 29.277344 31.902344 C 28.019531 32.546875 26.230469 33.515625 24.585938 33.515625 C 22.941406 33.515625 21.292969 32.640625 19.894531 31.902344 L 19.738281 31.945312 L 17.523438 32.75 C 17.128906 32.851562 16.75 33 16.417969 33.203125 C 15.519531 33.757812 15.066406 34.589844 14.835938 35.285156 C 14.835938 35.285156 14.601562 36.941406 14.609375 37 C 14.589844 37.234375 14.566406 39.722656 14.542969 39.992188 C 18.425781 42.621094 21.542969 43.355469 26.890625 43.121094 C 29.324219 43.015625 32.941406 41.816406 34.835938 40.859375 C 34.738281 38.746094 34.558594 35.285156 34.558594 35.285156 C 34.359375 34.210938 33.921875 33.582031 32.890625 33.269531 Z M 32.890625 33.269531 "/>
<path style=" stroke:none;fill-rule:nonzero;fill:rgb(74.509804%,47.058824%,25.490196%);fill-opacity:1;" d="M 19.269531 23.179688 C 19.1875 23.003906 17.347656 18.898438 18.746094 16.105469 C 19.324219 14.949219 20.375 14.191406 21.867188 13.855469 C 22.726562 13.261719 23.757812 12.9375 24.777344 12.9375 C 25.628906 12.9375 26.460938 13.160156 27.242188 13.59375 C 27.65625 13.828125 27.992188 14.023438 28.273438 14.183594 C 29.164062 14.703125 29.464844 14.878906 29.996094 14.878906 C 30.054688 14.878906 30.117188 14.875 30.179688 14.871094 L 30.246094 14.867188 C 30.320312 14.863281 30.394531 14.859375 30.464844 14.859375 C 30.929688 14.859375 31.058594 15.105469 31.085938 15.3125 C 31.15625 15.832031 30.972656 16.285156 30.808594 16.679688 C 30.664062 17.039062 30.539062 17.347656 30.621094 17.628906 C 31.542969 20.644531 30.117188 23.101562 30.054688 23.203125 L 29.585938 23.996094 L 29.589844 23.074219 C 29.589844 23.050781 29.597656 20.710938 29.042969 19.214844 C 28.335938 19.613281 27.472656 19.820312 26.53125 19.820312 C 24.90625 19.820312 23.113281 19.226562 21.328125 18.105469 C 19.746094 19.351562 19.746094 23.035156 19.746094 23.074219 L 19.753906 24.242188 Z M 19.269531 23.179688 "/>
<path style=" stroke:none;fill-rule:nonzero;fill:rgb(27.843137%,16.862745%,16.078431%);fill-opacity:1;" d="M 24.777344 13.1875 C 25.53125 13.1875 26.328125 13.371094 27.121094 13.8125 C 28.886719 14.796875 29.214844 15.128906 29.996094 15.128906 C 30.058594 15.128906 30.125 15.125 30.195312 15.121094 C 30.289062 15.117188 30.378906 15.109375 30.464844 15.109375 C 30.65625 15.109375 30.8125 15.148438 30.835938 15.34375 C 30.960938 16.265625 30.164062 16.976562 30.382812 17.699219 C 31.28125 20.648438 29.839844 23.074219 29.839844 23.074219 C 29.839844 23.074219 29.859375 20.382812 29.164062 18.847656 C 28.449219 19.324219 27.550781 19.570312 26.53125 19.570312 C 24.992188 19.570312 23.183594 19.003906 21.320312 17.800781 C 19.472656 19.03125 19.496094 23.074219 19.496094 23.074219 C 19.496094 23.074219 15.996094 15.394531 21.96875 14.089844 C 22.730469 13.554688 23.710938 13.1875 24.777344 13.1875 M 24.777344 12.6875 C 23.722656 12.6875 22.65625 13.019531 21.765625 13.621094 C 20.222656 13.984375 19.132812 14.78125 18.523438 15.996094 C 17.074219 18.890625 18.960938 23.105469 19.039062 23.28125 L 20.003906 25.402344 L 19.996094 23.074219 C 19.992188 22.089844 20.234375 19.472656 21.355469 18.414062 C 23.125 19.5 24.910156 20.070312 26.53125 20.070312 C 27.402344 20.070312 28.207031 19.898438 28.902344 19.570312 C 29.347656 21.019531 29.339844 23.050781 29.339844 23.070312 L 29.328125 24.917969 L 30.273438 23.328125 C 30.335938 23.222656 31.8125 20.675781 30.863281 17.554688 C 30.800781 17.359375 30.914062 17.089844 31.039062 16.773438 C 31.207031 16.371094 31.410156 15.867188 31.332031 15.277344 C 31.3125 15.121094 31.1875 14.609375 30.464844 14.609375 C 30.390625 14.609375 30.308594 14.613281 30.230469 14.617188 L 30.164062 14.621094 C 30.105469 14.625 30.050781 14.628906 29.996094 14.628906 C 29.550781 14.628906 29.316406 14.503906 28.398438 13.96875 C 28.117188 13.804688 27.78125 13.609375 27.363281 13.375 C 26.542969 12.917969 25.671875 12.6875 24.777344 12.6875 Z M 24.777344 12.6875 "/>
<path style=" stroke:none;fill-rule:nonzero;fill:rgb(0%,64.705882%,64.705882%);fill-opacity:1;" d="M 17.953125 42.105469 C 17.867188 42.105469 17.800781 42.039062 17.800781 41.957031 L 17.800781 39.980469 C 17.800781 39.898438 17.867188 39.832031 17.953125 39.832031 C 18.035156 39.832031 18.101562 39.898438 18.101562 39.980469 L 18.101562 41.957031 C 18.101562 42.039062 18.035156 42.105469 17.953125 42.105469 Z M 17.953125 42.105469 "/>
<path style=" stroke:none;fill-rule:nonzero;fill:rgb(0%,64.705882%,64.705882%);fill-opacity:1;" d="M 31.117188 42.453125 C 31.03125 42.453125 30.964844 42.386719 30.964844 42.304688 L 30.964844 39.980469 C 30.964844 39.898438 31.03125 39.832031 31.117188 39.832031 C 31.199219 39.832031 31.265625 39.898438 31.265625 39.980469 L 31.265625 42.304688 C 31.265625 42.386719 31.199219 42.453125 31.117188 42.453125 Z M 31.117188 42.453125 "/>
<path style=" stroke:none;fill-rule:nonzero;fill:rgb(99.215686%,85.882353%,73.72549%);fill-opacity:1;" d="M 30.710938 22 C 30.652344 21.996094 30.589844 21.996094 30.527344 21.996094 C 30.046875 21.972656 30.085938 22.152344 30.109375 21.855469 C 30.148438 21.324219 29.894531 19.183594 29.894531 19.078125 C 29.894531 16.847656 27.570312 15.03125 24.664062 14.929688 L 24.664062 14.925781 C 24.644531 14.925781 24.625 14.925781 24.605469 14.929688 C 24.585938 14.925781 24.566406 14.925781 24.546875 14.925781 L 24.546875 14.929688 C 21.640625 15.03125 19.3125 16.847656 19.3125 19.078125 C 19.3125 19.183594 19.238281 21.335938 19.277344 21.867188 C 19.300781 22.164062 19.164062 21.972656 18.679688 21.996094 C 18.617188 21.996094 18.558594 21.996094 18.5 22 C 17.972656 22.035156 17.542969 22.371094 17.453125 22.789062 C 17.515625 22.828125 17.757812 24.65625 18.148438 25.375 C 18.363281 25.777344 18.703125 25.832031 19.054688 26.089844 C 19.246094 26.234375 19.285156 26.398438 19.339844 26.613281 C 19.535156 27.40625 20.078125 28.082031 20.675781 28.660156 C 20.96875 28.945312 22.925781 31.027344 24.605469 30.921875 C 26.292969 30.859375 28.238281 28.945312 28.535156 28.660156 C 29.128906 28.082031 29.675781 27.40625 29.871094 26.613281 C 29.921875 26.398438 29.960938 26.234375 30.15625 26.089844 C 30.503906 25.832031 30.84375 25.777344 31.0625 25.375 C 31.453125 24.65625 31.691406 22.828125 31.757812 22.789062 C 31.664062 22.371094 31.238281 22.035156 30.710938 22 Z M 30.710938 22 "/>
<path style=" stroke:none;fill-rule:nonzero;fill:rgb(31.764706%,17.254902%,16.862745%);fill-opacity:1;" d="M 24.632812 25.53125 C 24.976562 25.53125 25.308594 25.378906 25.519531 25.132812 C 25.542969 25.105469 25.539062 25.066406 25.511719 25.046875 C 25.488281 25.023438 25.449219 25.027344 25.429688 25.050781 C 25.253906 25.25 24.964844 25.363281 24.632812 25.363281 C 24.304688 25.363281 24.011719 25.25 23.839844 25.050781 C 23.828125 25.039062 23.8125 25.03125 23.792969 25.03125 C 23.78125 25.03125 23.765625 25.035156 23.753906 25.046875 C 23.730469 25.066406 23.726562 25.105469 23.75 25.132812 C 23.960938 25.378906 24.292969 25.53125 24.632812 25.53125 Z M 24.632812 25.53125 "/>
<path style=" stroke:none;fill-rule:nonzero;fill:rgb(31.764706%,17.254902%,16.862745%);fill-opacity:1;" d="M 23.546875 20.917969 L 23.761719 20.5 C 22.847656 20.285156 21.792969 20.320312 20.921875 20.589844 L 21.195312 20.996094 C 21.910156 20.757812 22.789062 20.730469 23.546875 20.917969 Z M 23.546875 20.917969 "/>
<path style=" stroke:none;fill-rule:nonzero;fill:rgb(31.764706%,17.254902%,16.862745%);fill-opacity:1;" d="M 28.132812 20.917969 L 28.347656 20.5 C 27.429688 20.285156 26.378906 20.320312 25.507812 20.589844 L 25.78125 20.996094 C 26.496094 20.757812 27.375 20.730469 28.132812 20.917969 Z M 28.132812 20.917969 "/>
<path style=" stroke:none;fill-rule:nonzero;fill:rgb(31.764706%,17.254902%,16.862745%);fill-opacity:1;" d="M 22.226562 21.503906 C 22.007812 21.503906 21.8125 21.648438 21.703125 21.867188 C 21.730469 21.859375 21.757812 21.855469 21.789062 21.855469 C 21.96875 21.855469 22.117188 22.019531 22.117188 22.21875 C 22.117188 22.421875 21.96875 22.582031 21.789062 22.582031 C 21.730469 22.582031 21.675781 22.566406 21.628906 22.535156 C 21.703125 22.863281 21.945312 23.105469 22.226562 23.105469 C 22.574219 23.105469 22.851562 22.746094 22.851562 22.304688 C 22.851562 21.863281 22.574219 21.503906 22.226562 21.503906 Z M 22.226562 21.503906 "/>
<path style=" stroke:none;fill-rule:nonzero;fill:rgb(31.764706%,17.254902%,16.862745%);fill-opacity:1;" d="M 27.015625 21.503906 C 26.828125 21.503906 26.660156 21.609375 26.546875 21.777344 C 26.582031 21.761719 26.621094 21.753906 26.660156 21.753906 C 26.839844 21.753906 26.988281 21.917969 26.988281 22.117188 C 26.988281 22.320312 26.839844 22.480469 26.660156 22.480469 C 26.546875 22.480469 26.449219 22.417969 26.390625 22.324219 C 26.398438 22.757812 26.675781 23.105469 27.015625 23.105469 C 27.359375 23.105469 27.640625 22.746094 27.640625 22.304688 C 27.640625 21.863281 27.359375 21.503906 27.015625 21.503906 Z M 27.015625 21.503906 "/>
<path style=" stroke:none;fill-rule:nonzero;fill:rgb(31.764706%,17.254902%,16.862745%);fill-opacity:1;" d="M 27.28125 26.457031 C 27.304688 26.4375 27.308594 26.398438 27.289062 26.375 C 27.269531 26.347656 27.230469 26.34375 27.207031 26.363281 C 26.640625 26.8125 25.703125 27.070312 24.636719 27.070312 C 23.566406 27.070312 22.628906 26.8125 22.0625 26.363281 C 22.054688 26.355469 22.039062 26.351562 22.027344 26.351562 C 22.007812 26.351562 21.992188 26.359375 21.980469 26.375 C 21.960938 26.398438 21.960938 26.4375 21.988281 26.457031 C 22.625 26.976562 23.613281 27.289062 24.632812 27.289062 C 25.65625 27.289062 26.644531 26.976562 27.28125 26.457031 Z M 27.28125 26.457031 "/>
<path style=" stroke:none;fill-rule:nonzero;fill:rgb(31.764706%,17.254902%,16.862745%);fill-opacity:1;" d="M 25.332031 29.09375 C 25.363281 29.09375 25.390625 29.054688 25.390625 29.015625 C 25.390625 28.972656 25.363281 28.933594 25.332031 28.933594 L 24.046875 28.933594 C 24.015625 28.933594 23.992188 28.972656 23.992188 29.015625 C 23.992188 29.054688 24.015625 29.09375 24.046875 29.09375 Z M 25.332031 29.09375 "/>
<path style=" stroke:none;fill-rule:nonzero;fill:rgb(27.843137%,16.862745%,16.078431%);fill-opacity:1;" d="M 25.160156 43.480469 C 20.707031 43.480469 17.835938 42.589844 14.402344 40.265625 C 14.328125 40.214844 14.285156 40.128906 14.292969 40.039062 C 14.296875 39.984375 14.300781 39.800781 14.304688 39.535156 C 14.320312 38.445312 14.351562 36.175781 14.59375 35.285156 C 14.921875 34.078125 15.402344 33.605469 16.285156 33.058594 C 16.617188 32.855469 17.011719 32.691406 17.457031 32.574219 L 20.996094 31.289062 C 21.25 31.226562 21.449219 31.0625 21.480469 30.910156 C 21.492188 30.839844 21.523438 30.605469 21.554688 29.894531 C 21.039062 29.527344 20.621094 29.199219 20.5 29.082031 C 19.71875 28.320312 19.273438 27.621094 19.09375 26.890625 C 19.039062 26.667969 19.015625 26.589844 18.902344 26.503906 C 18.800781 26.425781 18.695312 26.371094 18.597656 26.316406 C 18.355469 26.179688 18.109375 26.035156 17.925781 25.699219 C 17.507812 24.917969 17.199219 23.4375 17.199219 22.964844 C 17.199219 22.949219 17.203125 22.929688 17.207031 22.914062 C 17.324219 22.371094 17.847656 21.960938 18.480469 21.917969 C 18.546875 21.914062 18.613281 21.914062 18.679688 21.914062 C 18.816406 21.90625 18.929688 21.917969 19.019531 21.929688 C 19.003906 21.328125 19.039062 20.050781 19.054688 19.472656 C 19.058594 19.328125 19.0625 19.234375 19.0625 19.214844 C 19.0625 16.84375 21.4375 14.902344 24.480469 14.773438 C 24.503906 14.765625 24.527344 14.761719 24.550781 14.761719 L 24.601562 15.011719 L 24.613281 14.765625 C 24.632812 14.765625 24.652344 14.765625 24.671875 14.769531 C 27.742188 14.878906 30.144531 16.828125 30.144531 19.214844 C 30.148438 19.246094 30.164062 19.390625 30.183594 19.59375 C 30.28125 20.496094 30.386719 21.488281 30.359375 21.875 L 30.355469 21.90625 C 30.390625 21.90625 30.433594 21.910156 30.472656 21.910156 L 30.539062 21.914062 C 30.59375 21.914062 30.660156 21.914062 30.726562 21.917969 C 31.359375 21.960938 31.882812 22.371094 32 22.914062 C 32.003906 22.929688 32.007812 22.949219 32.007812 22.964844 C 32.007812 23.511719 31.679688 24.949219 31.28125 25.699219 C 31.097656 26.035156 30.851562 26.175781 30.609375 26.3125 C 30.511719 26.371094 30.40625 26.425781 30.304688 26.503906 C 30.191406 26.589844 30.167969 26.667969 30.113281 26.878906 C 29.933594 27.621094 29.488281 28.316406 28.707031 29.082031 C 28.582031 29.203125 28.128906 29.570312 27.585938 29.964844 C 27.585938 30.394531 27.625 30.730469 27.691406 30.878906 C 27.761719 31.027344 27.898438 31.21875 28.148438 31.28125 C 28.324219 31.347656 31.898438 32.664062 32.519531 32.929688 C 32.632812 32.972656 32.734375 33.011719 32.816406 33.046875 C 32.867188 33.066406 32.921875 33.085938 32.960938 33.097656 C 34.023438 33.421875 34.574219 34.078125 34.804688 35.304688 C 34.808594 35.316406 34.808594 35.328125 34.808594 35.339844 C 34.808594 35.339844 34.988281 38.800781 35.085938 40.914062 C 35.089844 41.011719 35.039062 41.105469 34.949219 41.148438 C 32.929688 42.171875 29.277344 43.335938 26.902344 43.441406 C 26.296875 43.46875 25.714844 43.480469 25.160156 43.480469 Z M 14.796875 39.929688 C 18.503906 42.410156 21.570312 43.171875 26.882812 42.941406 C 29.132812 42.84375 32.578125 41.753906 34.578125 40.777344 C 34.484375 38.742188 34.324219 35.636719 34.3125 35.382812 C 34.113281 34.347656 33.695312 33.84375 32.816406 33.578125 C 32.769531 33.5625 32.703125 33.539062 32.625 33.511719 C 32.542969 33.472656 32.445312 33.433594 32.332031 33.390625 C 31.714844 33.128906 28.039062 31.773438 28 31.757812 C 27.683594 31.679688 27.40625 31.4375 27.242188 31.089844 C 27.128906 30.847656 27.074219 30.425781 27.089844 29.828125 C 27.089844 29.75 27.128906 29.675781 27.191406 29.632812 C 27.800781 29.199219 28.257812 28.820312 28.359375 28.722656 C 29.070312 28.027344 29.472656 27.410156 29.628906 26.773438 C 29.683594 26.535156 29.742188 26.300781 30.003906 26.105469 C 30.125 26.011719 30.246094 25.945312 30.363281 25.878906 C 30.574219 25.757812 30.726562 25.671875 30.839844 25.460938 C 31.21875 24.757812 31.496094 23.449219 31.507812 22.992188 C 31.425781 22.683594 31.085938 22.445312 30.691406 22.417969 C 30.636719 22.414062 30.585938 22.414062 30.53125 22.414062 L 30.453125 22.410156 C 30.175781 22.398438 30.039062 22.390625 29.929688 22.269531 C 29.832031 22.15625 29.84375 22.027344 29.855469 21.902344 L 29.859375 21.835938 C 29.886719 21.464844 29.753906 20.238281 29.6875 19.648438 C 29.664062 19.410156 29.644531 19.242188 29.644531 19.210938 C 29.644531 17.097656 27.453125 15.367188 24.652344 15.269531 C 24.640625 15.269531 24.628906 15.269531 24.617188 15.265625 C 24.605469 15.265625 24.597656 15.265625 24.597656 15.265625 C 24.582031 15.265625 24.570312 15.269531 24.554688 15.269531 C 21.753906 15.367188 19.5625 17.097656 19.5625 19.210938 C 19.5625 19.234375 19.558594 19.335938 19.554688 19.488281 C 19.539062 20.0625 19.496094 21.59375 19.527344 22.015625 C 19.53125 22.09375 19.542969 22.257812 19.421875 22.371094 C 19.304688 22.480469 19.160156 22.457031 19.039062 22.4375 C 18.953125 22.425781 18.84375 22.40625 18.691406 22.414062 C 18.621094 22.414062 18.570312 22.414062 18.515625 22.417969 C 18.121094 22.445312 17.78125 22.683594 17.703125 22.992188 C 17.714844 23.445312 18.011719 24.796875 18.367188 25.460938 C 18.480469 25.671875 18.632812 25.757812 18.84375 25.878906 C 18.960938 25.945312 19.082031 26.011719 19.203125 26.105469 C 19.464844 26.300781 19.523438 26.535156 19.578125 26.761719 C 19.734375 27.410156 20.140625 28.027344 20.851562 28.722656 C 20.949219 28.820312 21.386719 29.164062 21.957031 29.5625 C 22.027344 29.609375 22.066406 29.691406 22.0625 29.777344 C 22.03125 30.429688 22.003906 30.84375 21.972656 31.007812 C 21.894531 31.40625 21.5 31.675781 21.144531 31.765625 L 17.605469 33.050781 C 17.1875 33.164062 16.835938 33.304688 16.546875 33.484375 C 15.746094 33.980469 15.363281 34.359375 15.078125 35.417969 C 14.851562 36.246094 14.820312 38.554688 14.804688 39.542969 C 14.800781 39.703125 14.800781 39.835938 14.796875 39.929688 Z M 14.796875 39.929688 "/>
<path style=" stroke:none;fill-rule:nonzero;fill:rgb(53.72549%,36.470588%,23.921569%);fill-opacity:1;" d="M 30.738281 24.441406 L 30.441406 24.40625 L 30.542969 23.515625 L 30.035156 23.738281 L 29.917969 23.460938 L 30.660156 23.140625 C 30.710938 23.117188 30.765625 23.125 30.808594 23.15625 C 30.851562 23.1875 30.875 23.238281 30.867188 23.292969 Z M 30.738281 24.441406 "/>
<path style=" stroke:none;fill-rule:nonzero;fill:rgb(53.72549%,36.470588%,23.921569%);fill-opacity:1;" d="M 18.632812 24.269531 L 18.503906 23.121094 C 18.496094 23.070312 18.519531 23.015625 18.5625 22.984375 C 18.605469 22.953125 18.660156 22.945312 18.710938 22.96875 L 19.453125 23.289062 L 19.335938 23.566406 L 18.828125 23.347656 L 18.929688 24.234375 Z M 18.632812 24.269531 "/>
<path style=" stroke:none;fill-rule:nonzero;fill:rgb(27.843137%,16.862745%,16.078431%);fill-opacity:1;" d="M 19.300781 26.488281 C 19.242188 26.488281 19.199219 26.441406 19.199219 26.386719 L 19.285156 22.066406 C 19.285156 22.011719 19.328125 21.964844 19.382812 21.964844 C 19.382812 21.964844 19.382812 21.964844 19.386719 21.964844 C 19.441406 21.96875 19.484375 22.011719 19.484375 22.070312 L 19.402344 26.390625 C 19.398438 26.445312 19.355469 26.488281 19.300781 26.488281 Z M 19.300781 26.488281 "/>
<path style=" stroke:none;fill-rule:nonzero;fill:rgb(27.843137%,16.862745%,16.078431%);fill-opacity:1;" d="M 29.992188 26.488281 C 29.9375 26.488281 29.890625 26.445312 29.890625 26.390625 L 29.808594 22.070312 C 29.808594 22.011719 29.851562 21.96875 29.90625 21.964844 C 29.90625 21.964844 29.90625 21.964844 29.910156 21.964844 C 29.964844 21.964844 30.007812 22.011719 30.007812 22.066406 L 30.089844 26.386719 C 30.089844 26.441406 30.046875 26.488281 29.992188 26.488281 Z M 29.992188 26.488281 "/>
<path style=" stroke:none;fill-rule:nonzero;fill:rgb(27.843137%,16.862745%,16.078431%);fill-opacity:1;" d="M 24.660156 31.046875 C 23.597656 31.046875 21.8125 29.742188 21.734375 29.683594 C 21.675781 29.640625 21.664062 29.5625 21.707031 29.507812 C 21.746094 29.453125 21.828125 29.441406 21.882812 29.480469 C 21.902344 29.496094 23.824219 30.898438 24.761719 30.792969 C 25.71875 30.683594 27.253906 29.601562 27.265625 29.589844 C 27.324219 29.550781 27.402344 29.566406 27.441406 29.621094 C 27.480469 29.679688 27.46875 29.757812 27.410156 29.796875 C 27.347656 29.84375 25.8125 30.925781 24.789062 31.039062 C 24.746094 31.046875 24.703125 31.046875 24.660156 31.046875 Z M 24.660156 31.046875 "/>
<path style=" stroke:none;fill-rule:nonzero;fill:rgb(74.509804%,47.058824%,25.490196%);fill-opacity:1;" d="M 30.835938 15.375 C 30.800781 15.09375 30.496094 15.136719 30.195312 15.152344 C 29.257812 15.207031 29.03125 14.910156 27.121094 13.84375 C 25.214844 12.78125 23.269531 13.207031 21.96875 14.121094 C 15.996094 15.425781 19.496094 23.105469 19.496094 23.105469 C 19.496094 23.105469 19.472656 19.0625 21.320312 17.835938 C 24.414062 19.832031 27.363281 20.070312 29.164062 18.882812 C 29.859375 20.414062 29.839844 23.105469 29.839844 23.105469 C 29.839844 23.105469 31.28125 20.679688 30.382812 17.730469 C 30.164062 17.007812 30.960938 16.296875 30.835938 15.375 Z M 30.835938 15.375 "/>
<path style=" stroke:none;fill-rule:nonzero;fill:rgb(27.843137%,16.862745%,16.078431%);fill-opacity:1;" d="M 30.0625 23.085938 L 29.8125 23.082031 C 29.8125 23.058594 29.820312 20.550781 29.191406 19.042969 C 27.230469 20.21875 24.21875 19.808594 21.269531 17.960938 C 19.53125 19.191406 19.53125 23.042969 19.53125 23.082031 L 19.28125 23.085938 C 19.28125 22.917969 19.28125 18.960938 21.195312 17.707031 C 21.238281 17.679688 21.289062 17.679688 21.332031 17.707031 C 24.28125 19.578125 27.289062 19.980469 29.179688 18.753906 C 29.210938 18.734375 29.25 18.730469 29.285156 18.738281 C 29.320312 18.75 29.347656 18.773438 29.363281 18.808594 C 30.070312 20.347656 30.0625 22.972656 30.0625 23.085938 Z M 30.0625 23.085938 "/>
</g>
</svg>
